<?xml version="1.0" standalone="no"?>
<!DOCTYPE svg PUBLIC "-//W3C//DTD SVG 1.1//EN" "http://www.w3.org/Graphics/SVG/1.1/DTD/svg11.dtd" >
<svg xmlns="http://www.w3.org/2000/svg">
<metadata>Generated by IcoMoon</metadata>
<defs>
<font id="icomoon" horiz-adv-x="1024">
<font-face units-per-em="1024" ascent="877.7142857142858" descent="-146.28571428571428" />
<missing-glyph horiz-adv-x="1024" />
<glyph unicode="&#x20;" horiz-adv-x="256" d="" />
<glyph unicode="&#xe900;" glyph-name="brackets" d="M170.667 586.057c-19.505-78.019-48.762-229.181-78.019-341.333-58.514-263.314-58.514-258.438 34.133-258.438 78.019 0 243.81 321.829 292.571 580.267 29.257 136.533 19.505 151.162-97.524 151.162-97.524 0-131.657-29.257-151.162-131.657zM707.048 659.2c-53.638-165.79-126.781-633.905-102.4-658.286 68.267-73.143 175.543 58.514 268.19 331.581 53.638 170.667 102.4 326.705 102.4 346.21 0 63.39-243.81 43.886-268.19-19.505z" />
<glyph unicode="&#xe901;" glyph-name="brackets-1" d="M268.19 668.952c-39.010-63.39-219.429-590.019-219.429-643.657 0-24.381 58.514-39.010 131.657-29.257 117.029 14.629 136.533 43.886 190.171 307.2 34.133 160.914 63.39 321.829 63.39 355.962 4.876 68.267-121.905 78.019-165.79 9.752zM726.552 488.533c-53.638-131.657-112.152-292.571-126.781-365.714-24.381-121.905-14.629-136.533 102.4-136.533 97.524 0 131.657 29.257 151.162 136.533 19.505 73.143 48.762 224.305 78.019 336.457 58.514 263.314 58.514 258.438-29.257 258.438-43.886 0-117.029-97.524-175.543-229.181z" />
<glyph unicode="&#xe902;" glyph-name="chel" horiz-adv-x="927" d="M357.434 817.63c-44.438-65.691-9.66-127.517 69.555-127.517s117.857 77.283 65.691 135.245c-46.37 52.166-98.536 48.302-135.245-7.728zM473.358 777.057c0-40.574-59.894-63.758-88.875-34.777-9.66 9.66-13.525 32.845-5.796 52.166 17.389 46.37 94.672 32.845 94.672-17.389zM328.453 651.472c-220.257-17.389-311.064-36.709-324.589-73.419-5.796-17.389 32.845-23.185 154.566-19.321l160.362 5.796 23.185-212.528c13.525-115.925 23.185-276.287 21.253-353.57s3.864-144.906 9.66-152.634c19.321-19.321 71.487 32.845 67.623 67.623-1.932 19.321 3.864 113.992 11.592 212.528l17.389 179.683 175.819-7.728c96.604-5.796 197.072-11.592 224.121-15.457 32.845-5.796 48.302 1.932 48.302 19.321 0 34.777-175.819 98.536-312.996 112.060l-102.4 11.592v144.906l144.906 13.525c133.313 13.525 187.411 32.845 150.702 54.098-34.777 21.253-278.219 27.049-469.494 13.525zM589.283 614.762c-112.060-19.321-125.585-32.845-125.585-127.517 0-92.74-3.864-90.808 202.868-115.925 170.023-21.253 148.77-38.642-44.438-38.642h-187.411l-5.796-154.566c-9.66-251.17-34.777-206.732-50.234 85.011-5.796 148.77-17.389 284.015-23.185 299.472-7.728 17.389-36.709 32.845-73.419 32.845l-59.894 3.864 67.623 11.592c36.709 5.796 137.177 13.525 222.189 15.457 112.060 1.932 133.313-1.932 77.283-11.592z" />
<glyph unicode="&#xe903;" glyph-name="rectangle-l" horiz-adv-x="647" d="M32.337 820.884c-16.168-26.947 70.063-140.126 183.242-253.305l215.579-210.189-220.968-226.358c-307.2-312.589-172.463-344.926 161.684-43.116l280.253 253.305-150.905 156.295c-210.189 226.358-436.547 377.263-468.884 323.368z" />
<glyph unicode="&#xe904;" glyph-name="planet" d="M316.952 847.746c4.876-8.127-11.378-26.006-35.759-35.759-61.765-27.632-79.644-40.635-167.416-128.406-86.146-84.521-97.524-117.029-108.902-329.956-9.752-183.67 14.629-268.19 104.025-367.34 105.651-118.654 180.419-146.286 388.47-146.286 152.787 0 182.044 4.876 256.813 42.26 105.651 53.638 141.41 87.771 186.921 178.794 21.13 40.635 47.137 78.019 60.14 82.895 32.508 11.378 34.133 378.717 1.625 378.717-11.378 0-34.133 30.883-52.013 68.267-35.759 82.895-107.276 152.787-198.298 195.048-39.010 16.254-69.892 40.635-69.892 53.638 0 19.505-34.133 24.381-188.546 24.381-120.279 0-183.67-6.502-177.168-16.254zM513.625 797.359c9.752-17.879-50.387-78.019-78.019-79.644-26.006 0-11.378 63.39 16.254 79.644 35.759 22.756 47.137 21.13 61.765 0zM378.717 743.721c4.876-13.003-6.502-34.133-24.381-45.511-29.257-19.505-30.883-27.632-14.629-58.514 27.632-52.013 68.267-43.886 133.283 22.756 56.889 60.14 126.781 104.025 165.79 104.025 11.378 0 35.759-9.752 52.013-22.756 30.883-22.756 30.883-24.381 1.625-56.889-17.879-19.505-40.635-34.133-52.013-34.133-26.006 0-120.279-53.638-120.279-68.267 0-6.502-26.006-22.756-56.889-35.759-78.019-32.508-81.27-91.022-3.251-91.022 76.394 0 125.156-16.254 125.156-42.26 0-39.010-43.886-43.886-120.279-14.629-39.010 14.629-86.146 22.756-105.651 16.254-53.638-16.254-131.657-104.025-131.657-146.286 0-65.016 61.765-151.162 131.657-182.044 35.759-14.629 63.39-39.010 63.39-53.638 0-13.003 22.756-50.387 50.387-79.644 81.27-89.397 39.010-117.029-91.022-58.514-26.006 13.003-61.765 26.006-76.394 30.883-19.505 6.502-29.257 26.006-29.257 58.514 0 58.514-121.905 214.552-199.924 253.562-29.257 16.254-43.886 35.759-43.886 65.016 0 47.137 91.022 175.543 141.41 199.924 50.387 22.756 94.273 110.527 69.892 139.784-14.629 16.254-11.378 32.508 8.127 63.39 37.384 55.263 112.152 76.394 126.781 35.759zM827.327 641.321c19.505-26.006 40.635-55.263 50.387-65.016 53.638-65.016 47.137-141.41-9.752-133.283-45.511 8.127-100.775-29.257-107.276-69.892-3.251-26.006-14.629-35.759-37.384-34.133-43.886 4.876-105.651-27.632-105.651-55.263 0-13.003 11.378-40.635 26.006-61.765 24.381-37.384 24.381-40.635 0-50.387-17.879-6.502-26.006-30.883-26.006-76.394 0-66.641-35.759-125.156-76.394-125.156-11.378 0-21.13 17.879-21.13 43.886 0 58.514-73.143 151.162-120.279 151.162-19.505 0-43.886 8.127-55.263 19.505-29.257 29.257-22.756 107.276 13.003 143.035 30.883 30.883 81.27 29.257 81.27-1.625 0-8.127 39.010-14.629 86.146-14.629 79.644 0 87.771 4.876 128.406 63.39 42.26 60.14 43.886 63.39 14.629 89.397-14.629 14.629-40.635 26.006-53.638 26.006-14.629 0-39.010 4.876-52.013 9.752-40.635 16.254-1.625 52.013 69.892 65.016 61.765 11.378 131.657 63.39 131.657 99.149 0 34.133 27.632 24.381 63.39-22.756zM178.794 621.816c0-34.133-69.892-94.273-78.019-68.267-6.502 19.505 43.886 99.149 63.39 99.149 8.127 0 14.629-14.629 14.629-30.883zM958.984 314.616c0-34.133-11.378-76.394-24.381-94.273-13.003-16.254-24.381-39.010-24.381-50.387 0-30.883-74.768-133.283-133.283-185.295s-175.543-118.654-186.921-105.651c-9.752 9.752 43.886 91.022 60.14 91.022 8.127 0 17.879 30.883 24.381 69.892 6.502 37.384 22.756 82.895 34.133 100.775 13.003 17.879 22.756 47.137 22.756 66.641 0 24.381 13.003 39.010 40.635 45.511 24.381 6.502 48.762 27.632 56.889 52.013 14.629 37.384 61.765 68.267 110.527 69.892 11.378 1.625 19.505-21.13 19.505-60.14zM146.286 96.813c26.006-29.257 48.762-58.514 48.762-65.016 0-26.006-50.387-11.378-60.14 16.254-6.502 14.629-21.13 37.384-32.508 48.762-21.13 21.13-29.257 52.013-13.003 52.013 4.876 0 30.883-24.381 56.889-52.013z" />
<glyph unicode="&#xe905;" glyph-name="rectangle-r" horiz-adv-x="647" d="M269.474 610.695l-285.642-253.305 280.253-258.695c339.537-312.589 485.053-285.642 172.463 32.337l-220.968 226.358 220.968 215.579c312.589 312.589 172.463 344.926-167.074 37.726z" />
<glyph unicode="&#xe906;" glyph-name="instagram" d="M113.778 839.619c0-13.003-8.127-24.381-16.254-24.381-9.752 0-35.759-19.505-56.889-42.26l-40.635-43.886v-391.721c0-346.21 3.251-394.971 29.257-425.854 53.638-66.641 84.521-71.517 466.489-71.517 380.343 0 445.359 9.752 468.114 73.143 6.502 13.003 21.13 24.381 35.759 24.381 21.13 0 24.381 52.013 24.381 398.222 0 336.457-3.251 398.222-24.381 398.222-11.378 0-29.257 11.378-37.384 26.006-8.127 13.003-32.508 34.133-53.638 45.511s-37.384 29.257-34.133 39.010c1.625 14.629-95.898 19.505-378.717 19.505-328.33 0-381.968-3.251-381.968-24.381zM850.083 764.851c66.641-35.759 107.276-89.397 118.654-156.038 11.378-76.394-9.752-126.781-58.514-139.784-45.511-11.378-58.514 26.006-26.006 73.143 34.133 48.762 32.508 87.771-6.502 126.781-63.39 63.39-211.302 27.632-211.302-52.013 0-17.879 19.505-56.889 42.26-87.771 37.384-47.137 39.010-56.889 16.254-65.016-14.629-4.876-42.26 0-63.39 13.003-19.505 13.003-66.641 32.508-104.025 45.511-58.514 17.879-81.27 17.879-138.159 0-39.010-13.003-76.394-26.006-86.146-32.508-13.003-8.127-193.422-8.127-287.695-1.625-30.883 3.251-11.378 143.035 27.632 201.549 22.756 32.508 43.886 61.765 45.511 63.39s131.657 6.502 287.695 13.003c156.038 4.876 312.076 11.378 346.21 13.003s78.019-4.876 97.524-14.629zM841.956 602.311c3.251-32.508-3.251-45.511-29.257-52.013-37.384-9.752-71.517 35.759-55.263 78.019s78.019 22.756 84.521-26.006zM612.775 431.644c79.644-45.511 110.527-102.4 110.527-201.549 0-108.902-39.010-169.041-146.286-225.93-73.143-39.010-74.768-39.010-136.533-9.752-35.759 14.629-87.771 53.638-118.654 84.521-48.762 50.387-53.638 63.39-52.013 154.413 1.625 97.524 3.251 102.4 73.143 162.54 60.14 52.013 82.895 61.765 147.911 61.765 40.635 0 95.898-11.378 121.905-26.006zM958.984 218.717c0-308.825-40.635-338.083-463.238-338.083-268.19 1.625-393.346 26.006-414.476 81.27-8.127 21.13-22.756 42.26-30.883 48.762-11.378 6.502-17.879 84.521-17.879 204.8v195.048l102.4-4.876c91.022-4.876 100.775-8.127 95.898-37.384-3.251-17.879-16.254-43.886-29.257-58.514-76.394-84.521 29.257-287.695 186.921-357.587 89.397-39.010 125.156-39.010 219.429 1.625 175.543 78.019 251.937 247.060 172.292 377.092-17.879 29.257-32.508 58.514-32.508 65.016 0 16.254 45.511 21.13 131.657 16.254l79.644-6.502v-186.921zM385.219 348.749c-50.387-48.762-60.14-69.892-60.14-126.781 0-95.898 68.267-159.289 170.667-159.289s170.667 63.39 170.667 159.289c0 56.889-9.752 78.019-60.14 126.781-42.26 43.886-73.143 60.14-110.527 60.14s-68.267-16.254-110.527-60.14zM575.39 293.486c52.013-40.635 53.638-66.641 6.502-128.406-48.762-66.641-123.53-66.641-172.292 0-45.511 60.14-43.886 63.39 4.876 118.654 50.387 52.013 102.4 55.263 160.914 9.752z" />
<glyph unicode="&#xe907;" glyph-name="pinterest" horiz-adv-x="829" d="M238.933 831.492c-4.876-19.505-22.756-32.508-40.635-32.508-45.511 0-147.911-108.902-175.543-186.921-56.889-165.79 1.625-364.089 115.403-385.219 42.26-6.502 50.387-68.267 17.879-118.654-17.879-26.006-26.006-76.394-26.006-154.413v-113.778h47.137c61.765 0 139.784 95.898 154.413 190.171 13.003 71.517 58.514 102.4 92.648 60.14 68.267-82.895 295.822 55.263 347.835 211.302 9.752 27.632 26.006 48.762 37.384 45.511 14.629-1.625 19.505 34.133 19.505 126.781 0 78.019-6.502 130.032-16.254 130.032s-26.006 19.505-35.759 45.511c-26.006 56.889-108.902 141.41-156.038 156.038-19.505 6.502-35.759 22.756-35.759 35.759 0 17.879-32.508 22.756-169.041 22.756-154.413 0-169.041-3.251-177.168-32.508zM552.635 774.603c11.378-13.003 29.257-24.381 40.635-24.381 53.638 0 154.413-169.041 154.413-258.438 0-147.911-117.029-326.705-214.552-326.705-56.889 0-58.514 24.381-1.625 52.013 24.381 11.378 65.016 50.387 89.397 86.146 39.010 56.889 43.886 81.27 45.511 185.295v121.905l-74.768 69.892c-74.768 68.267-78.019 69.892-186.921 69.892-61.765 0-112.152-6.502-112.152-14.629s-16.254-21.13-35.759-27.632c-43.886-13.003-125.156-100.775-126.781-134.908 0-13.003-8.127-48.762-19.505-78.019-14.629-42.26-16.254-58.514-1.625-66.641 9.752-6.502 21.13-32.508 24.381-58.514 6.502-65.016-32.508-73.143-53.638-11.378-9.752 27.632-24.381 50.387-32.508 50.387-22.756 0-16.254 102.4 9.752 136.533 13.003 17.879 24.381 42.26 24.381 55.263 0 30.883 120.279 149.537 151.162 149.537 13.003 0 32.508 11.378 43.886 24.381 14.629 17.879 53.638 24.381 138.159 24.381s123.53-6.502 138.159-24.381zM508.749 668.952c32.508-19.505 69.892-60.14 84.521-91.022 24.381-53.638 24.381-63.39-1.625-149.537-39.010-123.53-69.892-164.165-123.53-165.79-42.26 0-45.511 4.876-45.511 69.892 0 39.010 11.378 84.521 24.381 102.4 39.010 52.013 29.257 112.152-26.006 159.289-27.632 22.756-60.14 42.26-71.517 42.26s-43.886-19.505-71.517-42.26c-45.511-37.384-50.387-50.387-50.387-136.533 0-107.276-22.756-139.784-50.387-69.892-22.756 56.889-6.502 185.295 26.006 209.676 13.003 9.752 24.381 26.006 24.381 37.384 0 9.752 9.752 17.879 22.756 17.879 11.378 0 30.883 11.378 42.26 24.381 29.257 35.759 149.537 30.883 216.178-8.127zM373.841 482.032c0-39.010-13.003-99.149-27.632-131.657-27.632-55.263-27.632-60.14 0-79.644 14.629-11.378 27.632-27.632 27.632-35.759 0-9.752 14.629-21.13 32.508-26.006s32.508-16.254 32.508-26.006c0-27.632-48.762-21.13-58.514 6.502-6.502 13.003-16.254 24.381-24.381 24.381-24.381 0-79.644-102.4-79.644-149.537 0-43.886-35.759-94.273-68.267-94.273-9.752 0-11.378 13.003-4.876 27.632 6.502 16.254 17.879 66.641 26.006 110.527 6.502 45.511 21.13 118.654 29.257 162.54 8.127 45.511 16.254 115.403 16.254 157.663 1.625 100.775 14.629 126.781 60.14 126.781 35.759 0 39.010-6.502 39.010-73.143z" />
<glyph unicode="&#xe908;" glyph-name="chel-g" horiz-adv-x="1520" d="M375.467 836.073c-245.139-12.412-359.952-31.030-369.261-55.855-6.206-21.721 15.515-40.339 46.545-40.339 310.303-3.103 515.103-27.927 552.339-65.164 43.442-43.442 58.958-195.491 49.648-499.588-3.103-136.533-18.618-192.388-68.267-238.933-74.473-68.267-34.133-111.709 80.679-83.782 49.648 12.412 136.533 111.709 263.758 307.2 105.503 155.152 195.491 285.479 204.8 285.479 24.824 0 229.624-462.352 229.624-518.206 0-37.236 24.824-55.855 77.576-55.855 89.988 0 86.885-6.206 49.648 111.709-15.515 49.648-74.473 232.727-127.224 403.394-52.752 173.77-121.018 338.23-148.945 363.055-62.061 55.855-291.685 114.812-409.6 108.606-43.442-3.103-235.83-12.412-431.321-21.721zM1101.576 736.776c77.576-37.236 108.606-86.885 189.285-332.024 55.855-155.152 93.091-285.479 89.988-285.479-6.206 0-58.958 108.606-124.121 242.036-130.327 276.17-93.091 291.685-375.467-145.842-89.988-145.842-167.564-273.067-167.564-288.582 0-12.412-12.412-24.824-27.927-24.824s-9.309 55.855 15.515 121.018c52.752 152.048 31.030 617.503-31.030 682.667-24.824 21.721-89.988 52.752-145.842 68.267-74.473 18.618-21.721 24.824 189.285 18.618 179.976-6.206 332.024-27.927 387.879-55.855zM834.715 584.727c-40.339-21.721-52.752-77.576-52.752-217.212 0-102.4 12.412-186.182 24.824-186.182 34.133 0 152.048 245.139 161.358 341.333 9.309 83.782-49.648 111.709-133.43 62.061zM899.879 485.43c0-21.721-15.515-62.061-31.030-86.885-24.824-37.236-31.030-27.927-31.030 40.339 0 46.545 15.515 83.782 31.030 83.782 18.618 0 31.030-18.618 31.030-37.236zM425.115 643.685c-71.37-43.442-65.164-142.739 12.412-183.079 46.545-27.927 74.473-24.824 108.606 3.103 102.4 83.782-3.103 245.139-121.018 179.976zM527.515 572.315c0-24.824-12.412-52.752-27.927-65.164-37.236-21.721-74.473 37.236-49.648 77.576 27.927 46.545 77.576 37.236 77.576-12.412z" />
<glyph unicode="&#xe909;" glyph-name="slip" d="M271.059 797.741c-186.729-96.376-283.106-280.094-256-490.918 18.071-141.553 21.082-340.329 6.024-415.624-3.012-21.082 9.035-33.129 30.118-30.118 75.294 15.059 274.071 12.047 415.624-6.024 292.141-36.141 557.176 198.776 557.176 496.941 0 60.235-30.118 168.659-66.259 240.941-78.306 156.612-268.047 271.059-445.741 271.059-60.235 0-168.659-30.118-240.941-66.259zM749.929 722.447c141.553-108.424 198.776-213.835 198.776-370.447 0-240.941-189.741-439.718-415.624-430.682-69.271 6.024-198.776 9.035-286.118 12.047-156.612 9.035-159.624 9.035-141.553 93.365 12.047 45.176 3.012 132.518-15.059 192.753-96.376 292.141 159.624 605.365 463.812 572.235 66.259-9.035 153.6-39.153 195.765-69.271zM496.941 532.706c-12.047-18.071 27.106-30.118 93.365-30.118h114.447l-96.376-99.388c-54.212-54.212-96.376-108.424-96.376-120.471s69.271-21.082 150.588-21.082c84.329 0 150.588 15.059 150.588 30.118 0 18.071-42.165 30.118-96.376 30.118h-96.376l96.376 99.388c54.212 54.212 96.376 108.424 96.376 120.471 0 33.129-295.153 24.094-316.235-9.035zM210.824 352c0-15.059 30.118-30.118 66.259-30.118h63.247l-63.247-69.271c-36.141-39.153-66.259-78.306-66.259-90.353 0-33.129 234.918-24.094 256 9.035 12.047 18.071-15.059 30.118-63.247 30.118h-81.318l63.247 69.271c90.353 96.376 84.329 111.435-54.212 111.435-66.259 0-120.471-12.047-120.471-30.118zM716.8 126.118c-48.188-39.153-84.329-81.318-84.329-90.353 0-36.141 84.329-9.035 132.518 42.165 84.329 90.353 42.165 126.494-48.188 48.188z" />
<glyph unicode="&#xe90a;" glyph-name="vector-oko" horiz-adv-x="1761" d="M716.8 839.424c-45.056-12.288-126.976-28.672-180.224-40.96s-196.608-114.688-315.392-229.376l-225.28-212.992 176.128-180.224c249.856-253.952 372.736-307.2 708.608-307.2s458.752 53.248 704.512 307.2l176.128 180.224-196.608 188.416c-106.496 102.4-229.376 204.8-274.432 229.376-98.304 49.152-458.752 90.112-573.44 65.536zM1077.248 724.736c102.4-28.672 270.336-126.976 376.832-208.896l188.416-155.648-94.208-98.304c-180.224-192.512-434.176-311.296-663.552-311.296-237.568 0-335.872 40.96-589.824 249.856l-176.128 139.264 94.208 102.4c159.744 172.032 389.12 290.816 651.264 335.872 12.288 4.096 110.592-20.48 212.992-53.248zM651.264 581.376c-69.632-73.728-118.784-163.84-118.784-229.376 0-143.36 204.8-348.16 348.16-348.16s348.16 204.8 348.16 348.16c0 143.36-204.8 348.16-348.16 348.16-65.536 0-155.648-49.152-229.376-118.784zM1056.768 528.128c61.44-53.248 65.536-286.72 0-352.256s-299.008-61.44-352.256 4.096c-98.304 122.88-94.208 229.376 12.288 335.872s212.992 110.592 339.968 12.288zM745.472 487.168c-49.152-49.152-69.632-155.648-28.672-155.648 28.672 0 184.32 155.648 184.32 184.32 0 40.96-106.496 20.48-155.648-28.672z" />
<glyph unicode="&#xe90b;" glyph-name="placeholder" horiz-adv-x="731" d="M227.556 839.619c0-14.629-16.254-30.883-35.759-39.010-82.895-30.883-159.289-165.79-159.289-277.943 0-78.019 34.133-159.289 104.025-251.937 52.013-68.267 52.013-79.644 3.251-110.527-40.635-27.632-107.276-147.911-107.276-195.048 0-14.629-8.127-30.883-16.254-35.759-9.752-4.876-16.254-27.632-16.254-50.387 0-29.257 8.127-39.010 37.384-39.010 21.13 0 45.511 8.127 55.263 17.879 17.879 17.879 48.762 16.254 255.187-11.378 48.762-6.502 92.648-3.251 115.403 9.752 35.759 19.505 128.406 16.254 224.305-8.127 43.886-11.378 43.886-11.378 43.886 69.892 0 66.641-4.876 82.895-32.508 89.397-21.13 4.876-32.508 22.756-32.508 47.137 0 22.756-21.13 60.14-48.762 87.771-26.006 26.006-48.762 55.263-48.762 66.641s21.13 52.013 47.137 89.397c26.006 39.010 53.638 91.022 58.514 115.403 6.502 24.381 21.13 43.886 34.133 43.886 16.254 0 22.756 21.13 22.756 73.143 0 47.137-6.502 71.517-19.505 68.267-9.752-1.625-26.006 19.505-35.759 45.511-21.13 58.514-100.775 149.537-141.41 162.54-17.879 6.502-30.883 21.13-30.883 34.133 0 17.879-29.257 22.756-138.159 22.756-113.778 0-138.159-4.876-138.159-24.381zM445.359 768.102c37.384-17.879 92.648-60.14 120.279-92.648 43.886-52.013 52.013-73.143 52.013-146.286 0-68.267-9.752-100.775-47.137-156.038-26.006-39.010-63.39-99.149-81.27-134.908-19.505-35.759-42.26-76.394-50.387-89.397s-17.879-37.384-22.756-53.638c-6.502-19.505-22.756-27.632-45.511-24.381-30.883 4.876-73.143 63.39-143.035 199.924-9.752 17.879-35.759 65.016-58.514 104.025-89.397 151.162-39.010 320.203 113.778 390.095 84.521 40.635 79.644 39.010 162.54 3.251zM282.819 43.175c34.133-40.635 73.143-73.143 87.771-73.143 29.257 0 79.644 48.762 108.902 105.651 27.632 52.013 73.143 39.010 112.152-32.508 17.879-35.759 43.886-71.517 56.889-82.895 39.010-30.883-8.127-42.26-61.765-16.254-43.886 22.756-52.013 22.756-123.53-14.629-87.771-47.137-113.778-48.762-178.794-6.502-78.019 48.762-92.648 53.638-120.279 34.133-40.635-30.883-66.641-40.635-78.019-30.883-9.752 11.378-1.625 32.508 43.886 100.775 17.879 27.632 37.384 58.514 42.26 69.892 17.879 35.759 50.387 21.13 110.527-53.638zM269.816 602.311c-22.756-27.632-42.26-61.765-42.26-78.019 0-30.883 71.517-104.025 118.654-120.279 43.886-16.254 105.651 14.629 133.283 68.267 32.508 65.016 30.883 71.517-17.879 130.032-30.883 37.384-55.263 50.387-95.898 50.387s-65.016-13.003-95.898-50.387zM416.102 547.048c11.378-29.257-19.505-73.143-52.013-73.143-24.381 0-45.511 56.889-30.883 81.27s73.143 19.505 82.895-8.127z" />
<glyph unicode="&#xe90c;" glyph-name="spina" d="M221.867 820.48c0-23.893 4.267-51.2 9.387-60.587 9.387-17.067 16.213-53.76 29.867-160.427 5.12-37.547-7.68-74.24-55.467-162.133-27.307-49.493-34.987-69.12-34.987-84.48 0-9.387-4.267-34.987-10.24-55.467-10.24-39.253 0.853-158.72 19.627-214.187 5.12-13.653 11.947-40.107 16.213-58.027 3.413-17.92 11.093-37.547 16.213-42.667s9.387-19.627 9.387-32.427c0-12.8 5.973-27.307 12.8-33.28s12.8-18.773 12.8-29.013c0-10.24 7.68-24.747 17.067-33.28 15.36-12.8 41.813-14.507 238.933-14.507s223.573 1.707 238.933 14.507c9.387 8.533 17.067 23.040 17.067 33.28s5.973 23.040 12.8 29.013c6.827 5.973 12.8 20.48 12.8 33.28s4.267 27.307 9.387 32.427c5.12 5.12 12.8 24.747 16.213 42.667 4.267 17.92 11.093 44.373 16.213 58.027 18.773 55.467 29.867 174.933 19.627 214.187-5.973 20.48-10.24 46.080-10.24 55.467 0 15.36-7.68 34.987-34.987 84.48-47.787 87.893-60.587 124.587-55.467 162.133 13.653 106.667 20.48 143.36 29.867 160.427 5.12 9.387 9.387 36.693 9.387 60.587v43.52h-563.2v-43.52zM708.267 767.573c0-12.8-5.973-34.987-12.8-48.64-19.627-37.547-19.627-199.68-0.853-221.013 7.68-8.533 13.653-21.333 13.653-28.16 0-7.68 5.973-17.92 12.8-23.893s12.8-14.507 12.8-19.627c0-5.12 5.973-15.36 12.8-23.040 7.68-8.533 14.507-25.6 15.36-38.4l1.707-23.893-259.413-0.853c-177.493-0.853-260.267 1.707-262.827 8.533-5.12 12.8 25.6 77.653 47.787 99.84 5.12 5.12 9.387 15.36 9.387 22.187s5.973 18.773 13.653 27.307c18.773 21.333 18.773 183.467-0.853 221.013-6.827 13.653-12.8 35.84-12.8 48.64v23.893h409.6v-23.893zM685.227 267.52c16.213-1.707-0.853-21.333-32.427-38.4-62.293-34.133-123.733-75.947-123.733-82.773 0-4.267-11.093-7.68-25.6-7.68-13.653 0-25.6 3.413-25.6 7.68 0 6.827-63.147 49.493-119.467 80.213-40.96 22.187-48.64 30.72-36.693 38.4 6.827 4.267 301.227 5.973 363.52 2.56zM268.8 215.467c13.653-13.653 29.013-25.6 34.987-25.6 5.12 0 11.947-5.973 15.36-12.8 2.56-6.827 10.24-12.8 17.067-12.8 5.973 0 13.653-5.973 17.067-12.8 2.56-6.827 8.533-12.8 14.507-12.8 5.12 0 23.893-11.093 40.96-23.893 17.067-13.653 36.693-26.453 44.373-29.013 11.093-4.267 14.507-23.040 17.92-89.6 2.56-46.933 1.707-87.893-3.413-93.867-10.24-12.8-123.733-9.387-149.333 5.12-13.653 6.827-19.627 17.92-19.627 33.28 0 13.653-5.973 31.573-12.8 40.96-6.827 8.533-12.8 25.6-12.8 37.547s-5.973 30.72-12.8 42.667c-6.827 11.947-12.8 33.28-12.8 46.933 0 14.507-5.973 34.987-12.8 46.933-15.36 27.307-17.067 85.333-1.707 85.333 5.973 0 22.187-11.093 35.84-25.6zM785.067 209.493c-0.853-17.92-5.973-41.813-12.8-53.76s-12.8-32.427-12.8-46.933c0-13.653-5.973-34.987-12.8-46.933s-12.8-30.72-12.8-42.667c0-11.947-5.973-29.013-12.8-37.547-6.827-9.387-12.8-27.307-12.8-40.96 0-15.36-5.973-26.453-18.773-33.28-25.6-13.653-139.947-17.92-150.187-5.12-5.12 5.973-6.827 45.227-4.267 93.013l5.12 82.773 43.52 28.16c23.893 15.36 50.347 30.72 58.88 34.133 7.68 3.413 14.507 10.24 14.507 15.36 0 4.267 5.973 8.533 12.8 8.533 7.68 0 15.36 5.973 17.92 12.8 3.413 6.827 10.24 12.8 15.36 12.8 5.973 0 21.333 11.947 34.987 25.6 33.28 34.987 46.933 33.28 46.933-5.973zM104.107 666.027c-5.973-5.973-10.24-23.040-10.24-39.253 0-29.013 0-29.013-29.867-23.893-45.227 8.533-64 0-64-29.013 0-28.16 15.36-34.987 68.267-31.573 28.16 1.707 29.867 0 27.307-22.187-3.413-25.6 10.24-48.64 29.013-48.64 16.213 0 97.28 86.187 97.28 102.4s-81.067 102.4-96.427 102.4c-5.973 0-15.36-4.267-21.333-10.24zM827.733 631.893c-21.333-23.040-39.253-48.64-40.96-56.32-1.707-17.067 77.653-104.107 95.573-104.107 18.773 0 32.427 23.040 29.013 48.64-2.56 23.040-0.853 23.893 35.84 24.747 74.24 0 76.8 1.707 76.8 28.16 0 20.48-4.267 24.747-27.307 29.867-14.507 2.56-40.107 2.56-55.467 0-27.307-5.12-28.16-4.267-28.16 23.893 0 31.573-12.8 49.493-33.28 48.64-7.68 0-30.72-19.627-52.053-43.52z" />
<glyph unicode="&#xe90d;" glyph-name="envelope" horiz-adv-x="1654" d="M34.133 793.108c-47.262-97.149-47.262-876.964-2.626-921.6s1451.979-44.636 1551.754 2.626l70.892 31.508v427.979c0 372.841-5.251 425.354-42.010 425.354-23.631 0-47.262 23.631-55.138 52.513-13.128 49.887-36.759 52.513-753.559 52.513h-737.805l-31.508-70.892zM1391.59 735.344c0-28.882-118.154-133.908-147.036-133.908-18.379 0-118.154-57.764-225.805-131.282-105.026-70.892-202.174-131.282-217.928-131.282-13.128 0-112.903 60.39-217.928 131.282-107.651 73.518-207.426 131.282-223.179 131.282-28.882 0-149.662 102.4-149.662 128.656 0 7.877 265.19 15.754 590.769 15.754s590.769-5.251 590.769-10.503zM196.923 604.062c97.149-94.523 567.138-422.728 603.897-422.728s506.749 328.205 609.149 425.354c44.636 44.636 97.149 73.518 112.903 68.267 39.385-13.128 44.636-685.292 5.251-698.421-15.754-5.251-102.4 63.015-191.672 149.662-181.169 175.918-267.815 207.426-254.687 91.897 5.251-49.887 39.385-84.021 115.528-126.031 115.528-60.39 194.297-128.656 194.297-165.415 0-10.503-265.19-21.005-590.769-21.005s-590.769 7.877-590.769 21.005c0 31.508 89.272 107.651 194.297 162.79 115.528 60.39 165.415 136.533 123.405 178.544-39.385 39.385-139.159-18.379-286.195-170.667-68.267-68.267-136.533-126.031-149.662-126.031-18.379 0-28.882 123.405-28.882 354.462 0 220.554 10.503 354.462 26.256 354.462s63.015-34.133 107.651-76.144z" />
<glyph unicode="&#xe90e;" glyph-name="phone-call" d="M136.533 849.371c4.876-6.502-16.254-39.010-47.137-71.517s-56.889-73.143-56.889-91.022c0-17.879-6.502-37.384-16.254-42.26-21.13-13.003-21.13-263.314 0-276.317 8.127-4.876 16.254-27.632 16.254-47.137 0-21.13 11.378-47.137 24.381-58.514s24.381-30.883 24.381-43.886c0-29.257 266.565-297.448 295.822-297.448 13.003 0 30.883-8.127 42.26-19.505 52.013-52.013 359.213-89.397 385.219-45.511 4.876 8.127 26.006 16.254 47.137 16.254 19.505 0 56.889 21.13 82.895 48.762 26.006 26.006 56.889 48.762 68.267 48.762s21.13 14.629 21.13 32.508c0 17.879-6.502 32.508-16.254 32.508-8.127 0-69.892 55.263-134.908 121.905-100.775 102.4-125.156 118.654-159.289 110.527-42.26-11.378-82.895-56.889-95.898-110.527-4.876-17.879-21.13-34.133-35.759-37.384-48.762-9.752-190.171 107.276-271.441 222.679-42.26 60.14-34.133 102.4 22.756 113.778 37.384 6.502 105.651 79.644 105.651 113.778 0 13.003-55.263 78.019-121.905 143.035s-121.905 125.156-121.905 134.908c0 8.127-14.629 16.254-34.133 16.254-17.879 0-29.257-6.502-24.381-14.629zM258.438 662.451c76.394-78.019 86.146-92.648 66.641-115.403s-30.883-16.254-108.902 60.14c-81.27 81.27-110.527 143.035-65.016 143.035 11.378 0 60.14-40.635 107.276-87.771zM177.168 551.924c52.013-56.889 55.263-63.39 34.133-102.4-19.505-35.759-16.254-50.387 24.381-130.032 45.511-91.022 204.8-251.937 247.060-251.937 11.378 0 35.759-8.127 53.638-19.505 24.381-16.254 39.010-14.629 73.143 3.251 39.010 21.13 45.511 17.879 102.4-34.133 32.508-30.883 68.267-61.765 76.394-68.267 22.756-19.505-37.384-60.14-87.771-60.14-42.26 0-141.41 27.632-180.419 50.387-13.003 8.127-35.759 19.505-48.762 26.006-100.775 43.886-269.816 214.552-352.711 354.337-35.759 60.14-69.892 167.416-69.892 219.429 0 40.635 48.762 105.651 63.39 86.146 4.876-8.127 34.133-40.635 65.016-73.143zM824.076 96.813c47.137-47.137 86.146-94.273 86.146-105.651 0-45.511-61.765-17.879-143.035 65.016-66.641 66.641-81.27 89.397-65.016 105.651 11.378 11.378 22.756 19.505 27.632 19.505s47.137-37.384 94.273-84.521zM503.873 844.495c0-35.759 26.006-61.765 66.641-69.892 152.787-29.257 188.546-47.137 271.441-136.533 47.137-50.387 86.146-147.911 104.025-253.562 3.251-19.505 19.505-34.133 42.26-37.384 34.133-4.876 35.759 0 35.759 89.397 0 76.394-6.502 99.149-32.508 115.403-17.879 11.378-32.508 32.508-32.508 50.387 0 43.886-154.413 190.171-211.302 203.175-29.257 4.876-48.762 19.505-48.762 34.133 0 19.505-21.13 24.381-97.524 24.381-66.641 0-97.524-6.502-97.524-19.505zM512 685.206c-4.876-8.127-1.625-30.883 8.127-48.762 13.003-24.381 34.133-32.508 78.019-32.508 81.27 0 157.663-76.394 173.917-173.917 16.254-100.775 89.397-117.029 89.397-19.505 0 82.895-94.273 206.425-198.298 260.063-65.016 34.133-134.908 40.635-151.162 14.629zM512 522.667c-13.003-40.635 1.625-65.016 39.010-65.016 35.759 0 66.641-30.883 66.641-66.641 0-37.384 24.381-52.013 65.016-39.010 50.387 16.254 39.010 63.39-34.133 136.533s-120.279 84.521-136.533 34.133z" />
<glyph unicode="&#xe90f;" glyph-name="koct" horiz-adv-x="381" d="M91.022 839.237c-2.008-14.055-4.016-46.18-4.016-72.282 0-25.433-4.685-74.29-9.37-108.424-7.362-54.212-11.378-65.59-34.803-97.046-14.724-19.409-30.118-44.173-34.803-54.212-9.37-22.086-10.708-80.314-2.008-97.046 3.346-6.024 8.031-16.063 10.039-22.086 1.339-6.024 14.055-19.409 27.441-30.118 33.464-25.433 87.007-30.118 118.463-10.708 20.078 12.716 24.094 12.716 44.842 4.016 58.897-24.763 135.195 2.677 151.258 56.22 2.008 8.031 8.701 14.724 14.055 14.724 7.362 0 9.37 10.039 9.37 40.157 0 31.456-2.008 40.157-10.039 40.157-6.024 0-13.386 8.031-16.732 17.401-4.016 9.37-18.74 31.456-32.795 48.188-22.756 27.441-27.441 39.488-36.81 91.692-6.024 33.464-10.708 85.668-10.708 117.124 0 78.306-3.346 87.007-30.118 87.007-28.11 0-30.118-7.362-30.118-108.424 0-54.212 4.016-94.369 12.716-131.848 14.055-56.889 24.763-76.298 63.582-113.778 32.125-31.456 33.464-63.582 3.346-93.699-26.102-26.102-48.188-26.771-77.637-0.669-28.11 24.763-34.803 24.763-58.897 0-26.102-27.441-60.235-28.11-85.668-1.339-27.441 28.779-24.763 57.558 9.37 95.038 48.858 54.212 52.873 67.597 67.597 218.855 6.024 66.259 6.024 87.007-1.339 109.093-8.031 24.094-11.378 26.771-30.118 26.771-20.078 0-22.086-2.008-26.102-24.763zM295.822 308.497c-25.433-15.393-59.566-16.732-77.637-3.346s-43.503 12.716-59.566-1.339c-8.031-8.031-23.425-12.047-44.173-12.047-21.417 0-35.472 4.016-43.503 12.047-13.386 13.386-40.826 15.393-48.858 3.346-11.378-18.74-22.086-56.889-22.086-82.991 0-32.125 13.386-62.243 46.85-103.069 30.787-36.81 40.157-78.306 46.18-194.092l4.016-83.66h53.542l2.008 83.66c2.008 76.967-2.677 113.778-22.756 188.737-2.008 6.024-21.417 31.456-43.503 55.55-21.417 24.094-39.488 48.188-39.488 52.873 0 14.055 16.063 24.094 26.771 17.401 16.732-10.708 87.676-8.031 101.061 4.016 10.708 9.37 13.386 9.37 32.125 0 26.102-14.055 57.558-13.386 81.652 0.669 22.086 13.386 28.11 9.37 28.11-16.732 0-12.716-8.701-28.11-28.11-48.188-45.511-48.188-50.865-63.582-67.597-190.745-8.031-63.582-8.031-121.809 0-137.872 4.685-8.701 14.055-12.716 29.448-12.716 26.771 0 30.118 8.701 30.787 76.967 0 26.102 4.016 75.629 8.701 111.77 8.031 58.897 11.378 67.597 36.141 100.392 14.724 19.409 28.779 42.165 31.456 50.865 2.677 8.031 9.37 14.724 14.724 14.724 6.693 0 9.37 9.37 9.37 36.81 0 28.779-2.008 36.81-10.039 36.81-6.024 0-12.047 8.031-14.724 20.078-3.346 18.74-18.74 33.464-33.464 33.464-2.677 0-15.393-6.024-27.441-13.386z" />
<glyph unicode="&#xe910;" glyph-name="search" d="M207.644 785.778c-11.378-11.378-27.022-21.333-32.711-21.333-15.644 0-103.822-89.6-103.822-105.244 0-5.689-9.956-19.911-21.333-31.289-31.289-31.289-31.289-372.622 0-384 11.378-5.689 21.333-19.911 21.333-34.133 0-27.022 110.933-128 137.956-128 8.533 0 22.756-9.956 32.711-21.333 25.6-31.289 291.556-31.289 304.356 0 4.267 12.8 25.6 21.333 51.2 21.333 36.978 0 64-19.911 153.6-113.778 61.156-62.578 120.889-113.778 135.111-113.778 32.711 0 95.289 62.578 95.289 95.289 0 14.222-51.2 75.378-113.778 135.111-91.022 88.178-113.778 119.467-113.778 152.178 0 22.756 8.533 44.089 21.333 49.778 31.289 11.378 31.289 281.6 0 307.2-11.378 9.956-21.333 24.178-21.333 32.711 0 22.756-99.556 137.956-119.467 137.956-11.378 0-27.022 9.956-36.978 21.333-14.222 17.067-54.044 21.333-193.422 21.333-136.533 0-179.2-4.267-196.267-21.333zM483.556 700.444c9.956-11.378 28.444-21.333 39.822-21.333 28.444 0 102.4-69.689 102.4-95.289 0-11.378 9.956-22.756 21.333-27.022 17.067-7.111 21.333-35.556 21.333-128 0-72.533-5.689-119.467-14.222-119.467s-19.911-11.378-24.178-24.178c-11.378-29.867-56.889-75.378-75.378-75.378-8.533 0-18.489-9.956-22.756-21.333-12.8-31.289-240.356-31.289-253.156 0-4.267 11.378-15.644 21.333-27.022 21.333-25.6 0-95.289 73.956-95.289 102.4 0 11.378-9.956 29.867-21.333 39.822-49.778 41.244-5.689 200.533 75.378 277.333 88.178 82.489 233.244 119.467 273.067 71.111z" />
<glyph unicode="&#xe911;" glyph-name="facebook" horiz-adv-x="634" d="M292.571 846.121c0-11.378-26.006-42.26-58.514-69.892-45.511-40.635-60.14-66.641-68.267-131.657-11.378-78.019-14.629-81.27-84.521-105.651-71.517-24.381-73.143-26.006-78.019-104.025-6.502-94.273 6.502-110.527 97.524-121.905l69.892-9.752-6.502-198.298c-6.502-271.441-9.752-264.94 136.533-264.94h120.279l4.876 232.432 4.876 230.806 48.762 4.876c27.632 3.251 73.143 16.254 102.4 32.508 47.137 24.381 52.013 34.133 52.013 99.149 0 39.010-4.876 68.267-9.752 61.765-6.502-4.876-32.508 1.625-58.514 14.629-27.632 14.629-63.39 22.756-79.644 17.879-35.759-9.752-69.892 27.632-56.889 61.765 9.752 29.257 60.14 50.387 144.66 65.016l60.14 9.752v193.422h-170.667c-117.029 0-170.667-6.502-170.667-17.879zM555.886 758.349c-8.127-40.635-32.508-56.889-86.146-56.889-86.146 0-154.413-130.032-105.651-203.175 21.13-32.508 40.635-40.635 99.149-40.635 39.010 0 74.768-6.502 81.27-14.629 13.003-22.756-45.511-50.387-104.025-50.387-87.771 0-104.025-50.387-95.898-284.444 8.127-212.927 1.625-235.683-63.39-235.683-43.886 0-42.26-11.378-37.384 255.187 3.251 232.432-8.127 264.94-91.022 264.94-65.016 0-125.156 26.006-112.152 50.387 6.502 8.127 35.759 14.629 66.641 14.629 91.022 0 120.279 24.381 120.279 97.524 0 71.517 56.889 195.048 89.397 195.048 11.378 0 29.257 11.378 40.635 24.381 16.254 19.505 45.511 24.381 112.152 21.13 81.27-4.876 91.022-8.127 86.146-37.384z" />
<glyph unicode="&#xe912;" glyph-name="twitter" horiz-adv-x="1219" d="M715.175 839.619c0-14.629-13.003-29.257-27.632-35.759-56.889-19.505-117.029-91.022-138.159-162.54-24.381-87.771-43.886-97.524-112.152-63.39-29.257 14.629-58.514 26.006-65.016 26.006-22.756 0-167.416 100.775-212.927 149.537-50.387 53.638-63.39 55.263-99.149 16.254-21.13-22.756-26.006-65.016-24.381-214.552 1.625-177.168 3.251-190.171 47.137-255.187 26.006-37.384 47.137-82.895 47.137-102.4 0-21.13 26.006-60.14 65.016-94.273 84.521-73.143 68.267-89.397-79.644-89.397-113.778 0-115.403 0-115.403-42.26 0-43.886 35.759-65.016 203.175-115.403 66.641-19.505 305.575-14.629 414.476 8.127 68.267 16.254 199.924 92.648 273.067 160.914 105.651 99.149 191.797 286.070 209.676 455.111 8.127 82.895 58.514 172.292 97.524 172.292 11.378 0 21.13 14.629 21.13 32.508 0 21.13-11.378 32.508-32.508 32.508-24.381 0-32.508 11.378-32.508 42.26 0 39.010-3.251 40.635-73.143 29.257-81.27-11.378-170.667 16.254-170.667 52.013 0 16.254-26.006 22.756-97.524 22.756-76.394 0-97.524-4.876-97.524-24.381zM957.359 716.089c29.257-16.254 65.016-43.886 78.019-63.39 21.13-29.257 21.13-39.010 0-69.892-11.378-19.505-26.006-76.394-32.508-126.781-4.876-50.387-16.254-105.651-24.381-121.905-8.127-17.879-32.508-66.641-53.638-108.902-47.137-95.898-216.178-255.187-269.816-255.187-13.003 0-39.010-11.378-58.514-24.381-43.886-29.257-349.46-50.387-383.594-27.632-26.006 17.879-9.752 52.013 24.381 52.013 13.003 0 53.638 14.629 87.771 32.508 48.762 26.006 65.016 42.26 65.016 73.143 0 35.759-8.127 40.635-53.638 40.635-35.759 0-66.641 13.003-86.146 34.133-29.257 32.508-29.257 35.759-1.625 55.263 42.26 30.883 34.133 50.387-40.635 92.648-71.517 39.010-107.276 110.527-55.263 110.527 40.635 0 47.137 30.883 16.254 78.019-65.016 95.898-87.771 151.162-74.768 175.543 11.378 19.505 27.632 13.003 95.898-42.26 45.511-35.759 89.397-65.016 99.149-65.016 8.127 0 24.381-11.378 35.759-24.381s32.508-24.381 47.137-24.381c14.629 0 47.137-11.378 73.143-24.381 24.381-13.003 71.517-24.381 100.775-24.381 63.39 0 91.022 42.26 76.394 117.029-6.502 30.883 4.876 60.14 37.384 102.4 74.768 92.648 173.917 105.651 297.448 39.010z" />
<glyph unicode="&#xe913;" glyph-name="hard" horiz-adv-x="796" d="M119.467 835.556c-76.8-31.289-128-156.444-105.244-250.311 8.533-36.978 62.578-119.467 122.311-184.889 227.556-256 216.178-233.244 159.289-318.578-68.267-105.244-17.067-213.333 102.4-213.333s170.667 108.089 102.4 213.333c-51.2 76.8-51.2 76.8 108.089 241.778 85.333 88.178 164.978 196.267 173.511 236.089 48.356 190.578-105.244 338.489-290.133 281.6-65.422-19.911-125.156-19.911-170.667-2.844-82.489 31.289-116.622 31.289-201.956-2.844zM349.867 727.467c42.667-36.978 54.044-36.978 99.556 2.844 76.8 71.111 196.267 59.733 247.467-19.911 42.667-62.578 42.667-79.644 2.844-150.756-22.756-42.667-99.556-136.533-173.511-207.644l-133.689-128-125.156 142.222c-201.956 224.711-219.022 256-182.044 327.111 34.133 65.422 139.378 116.622 184.889 91.022 17.067-8.533 51.2-34.133 79.644-56.889zM446.578 22.044c22.756-59.733-36.978-119.467-79.644-76.8-36.978 36.978-14.222 122.311 31.289 122.311 17.067 0 36.978-19.911 48.356-45.511z" />
<glyph unicode="&#xe914;" glyph-name="google-plus" horiz-adv-x="926" d="M217.803 849.371c4.876-8.127-16.254-29.257-45.511-47.137-69.892-42.26-139.784-149.537-139.784-214.552 0-94.273 110.527-227.556 190.171-227.556 34.133 0 69.892-40.635 69.892-79.644 0-9.752-26.006-17.879-56.889-17.879-66.641 0-169.041-58.514-208.051-120.279-16.254-22.756-27.632-73.143-27.632-117.029 0-66.641 8.127-82.895 58.514-130.032l56.889-55.263h170.667c165.79 0 201.549 8.127 273.067 65.016 47.137 39.010 107.276 141.41 107.276 186.921 0 55.263-66.641 157.663-138.159 211.302-30.883 24.381-56.889 50.387-56.889 58.514 0 6.502 32.508 47.137 73.143 89.397 56.889 56.889 73.143 86.146 73.143 128.406 0 29.257-11.378 61.765-24.381 73.143-34.133 27.632-30.883 40.635 24.381 97.524 27.632 27.632 48.762 65.016 48.762 81.27 0 30.883-11.378 32.508-229.181 32.508-131.657 0-224.305-6.502-219.429-14.629zM552.635 782.73c0-8.127-14.629-16.254-30.883-16.254-47.137 0-56.889-30.883-22.756-68.267 48.762-55.263 37.384-165.79-24.381-229.181-78.019-81.27-71.517-147.911 21.13-238.933 65.016-63.39 73.143-79.644 73.143-143.035 0-84.521-37.384-138.159-125.156-183.67-76.394-39.010-250.311-43.886-281.194-6.502-11.378 13.003-30.883 24.381-42.26 24.381-21.13 0-71.517 79.644-71.517 113.778 0 35.759 65.016 112.152 117.029 136.533 68.267 34.133 74.768 21.13 22.756-45.511-22.756-30.883-42.26-66.641-42.26-79.644 0-32.508 79.644-108.902 125.156-117.029 19.505-4.876 55.263-11.378 79.644-16.254 30.883-6.502 55.263 4.876 105.651 52.013 34.133 32.508 63.39 73.143 63.39 87.771s-32.508 56.889-73.143 94.273c-53.638 50.387-73.143 79.644-73.143 113.778 0 73.143-48.762 147.911-97.524 147.911-22.756 0-63.39 22.756-92.648 50.387-45.511 40.635-53.638 60.14-53.638 121.905 0 81.27 34.133 138.159 110.527 186.921 48.762 32.508 312.076 43.886 312.076 14.629zM378.717 117.943c79.644-30.883 53.638-147.911-30.883-147.911-100.775 0-165.79 113.778-82.895 146.286 47.137 19.505 66.641 19.505 113.778 1.625zM268.19 712.838c-68.267-73.143-73.143-86.146-55.263-143.035 11.378-30.883 43.886-79.644 74.768-107.276 53.638-52.013 56.889-52.013 94.273-27.632 22.756 14.629 40.635 35.759 40.635 47.137s11.378 24.381 24.381 30.883c55.263 21.13 13.003 133.283-76.394 203.175-52.013 40.635-60.14 40.635-102.4-3.251zM351.086 655.949c30.883-19.505 43.886-115.403 21.13-143.035-16.254-21.13-24.381-19.505-58.514 11.378-35.759 34.133-50.387 108.902-26.006 133.283 13.003 14.629 40.635 14.629 63.39-1.625zM720.051 742.095c-61.765-65.016-66.641-82.895-22.756-97.524 17.879-4.876 34.133-26.006 37.384-45.511 3.251-22.756 17.879-37.384 40.635-40.635 27.632-4.876 35.759 3.251 40.635 40.635 3.251 37.384 13.003 47.137 58.514 50.387 39.010 3.251 52.013 13.003 52.013 37.384 0 22.756-11.378 30.883-48.762 30.883s-50.387 8.127-58.514 40.635c-13.003 53.638-35.759 50.387-99.149-16.254z" />
<glyph unicode="&#xe915;" glyph-name="search2" d="M274.489 809.956c-32.711-2.844-66.844-14.222-75.378-25.6-9.956-9.956-25.6-19.911-34.133-19.911-19.911 0-93.867-72.533-93.867-92.444 0-7.111-9.956-22.756-22.756-36.978-17.067-19.911-22.756-61.156-22.756-196.267-1.422-162.133 0-173.511 35.556-227.556 41.244-61.156 108.089-129.422 129.422-129.422 7.111 0 24.178-8.533 35.556-19.911 38.4-34.133 298.667-35.556 334.222-1.422 36.978 38.4 65.422 22.756 186.311-99.556 65.422-66.844 128-120.889 137.956-120.889 11.378 0 38.4 19.911 61.156 42.667 22.756 24.178 49.778 42.667 59.733 42.667s18.489 7.111 18.489 14.222c0 8.533-8.533 14.222-18.489 14.222s-28.444 18.489-42.667 41.244c-14.222 22.756-66.844 79.644-116.622 123.733-93.867 83.911-112.356 123.733-69.689 153.6 32.711 24.178 32.711 297.244 0 334.222-12.8 14.222-22.756 31.289-22.756 38.4 0 19.911-66.844 88.178-126.578 128-46.933 29.867-73.956 35.556-173.511 38.4-65.422 1.422-146.489 1.422-179.2-1.422zM502.044 686.222c27.022-11.378 75.378-51.2 108.089-88.178 54.044-64 58.311-73.956 58.311-157.867 0-166.4-108.089-273.067-274.489-273.067-88.178 0-91.022 1.422-162.133 68.267-42.667 38.4-82.489 91.022-95.289 126.578-19.911 55.467-19.911 66.844 1.422 135.111 51.2 163.556 219.022 250.311 364.089 189.156z" />
<glyph unicode="&#xe916;" glyph-name="hard-1" horiz-adv-x="1288" d="M277.471 801.239c-112.31-69.368-188.284-234.529-158.555-350.142 13.213-56.155 0-79.277-52.852-92.49-142.039-36.335-26.426-89.187 201.497-89.187 175.071 0 234.529 13.213 247.742 49.548 33.032 82.581 79.277 56.155 79.277-46.245 0-138.735 49.548-151.948 128.826-39.639 39.639 52.852 102.4 102.4 142.039 109.006 115.613 16.516 112.31 92.49-3.303 92.49-62.761 0-115.613-26.426-148.645-69.368-49.548-72.671-49.548-72.671-69.368 23.123-49.548 214.71-79.277 234.529-138.735 75.974-36.335-89.187-49.548-99.097-165.161-89.187-118.916 9.91-125.523 16.516-135.432 128.826-9.91 99.097 6.606 135.432 92.49 208.103 125.523 105.703 194.89 109.006 310.503 16.516 85.884-69.368 92.49-69.368 155.252-9.91 79.277 69.368 264.258 79.277 343.535 13.213 92.49-75.974 122.219-194.89 82.581-317.11-36.335-109.006-402.994-475.665-475.665-475.665-19.819 0-92.49 42.942-155.252 99.097-109.006 89.187-161.858 99.097-161.858 29.729 0-16.516 66.065-72.671 148.645-128.826 148.645-102.4 151.948-102.4 241.135-46.245 346.839 221.316 528.516 478.968 488.877 687.071-39.639 214.71-284.077 336.929-475.665 244.439-82.581-42.942-109.006-42.942-175.071-6.606-112.31 62.761-227.923 56.155-346.839-16.516z" />
</font>
</defs>
</svg>
